<?xml version="1.0" encoding="UTF-8"?>
<svg xmlns="http://www.w3.org/2000/svg" xmlns:xlink="http://www.w3.org/1999/xlink" width="4000" height="4000" viewBox="0 0 4000 4000">
<defs>
<clipPath id="clip-0">
<path clip-rule="nonzero" d="M 1173 832 L 2827 832 L 2827 2486 L 1173 2486 Z M 1173 832 "/>
</clipPath>
<clipPath id="clip-1">
<path clip-rule="evenodd" d="M 2441.359375 1792.648438 L 2495.488281 1792.648438 C 2509.859375 1792.648438 2521.621094 1780.898438 2521.621094 1766.519531 L 2521.621094 1712.390625 C 2521.621094 1698.019531 2509.859375 1686.261719 2495.488281 1686.261719 L 2441.359375 1686.261719 C 2426.980469 1686.261719 2415.230469 1698.019531 2415.230469 1712.390625 L 2415.230469 1766.519531 C 2415.230469 1780.898438 2426.980469 1792.648438 2441.359375 1792.648438 Z M 1558.640625 1525.230469 L 1504.511719 1525.230469 C 1490.128906 1525.230469 1478.378906 1536.980469 1478.378906 1551.359375 L 1478.378906 1605.488281 C 1478.378906 1619.859375 1490.128906 1631.621094 1504.511719 1631.621094 L 1558.640625 1631.621094 C 1573.011719 1631.621094 1584.769531 1619.859375 1584.769531 1605.488281 L 1584.769531 1551.359375 C 1584.769531 1536.980469 1573.011719 1525.230469 1558.640625 1525.230469 Z M 2014 2174.761719 C 2010.421875 2171.179688 2005.46875 2168.960938 2000 2168.960938 C 1994.519531 2168.960938 1989.570312 2171.179688 1985.988281 2174.761719 L 1985.960938 2174.730469 C 1982.398438 2178.300781 1980.191406 2183.269531 1980.191406 2188.761719 C 1980.191406 2194.261719 1982.398438 2199.230469 1985.960938 2202.800781 C 1989.53125 2206.359375 1994.5 2208.570312 2000 2208.570312 C 2005.160156 2208.570312 2009.859375 2206.621094 2013.378906 2203.429688 L 2014 2202.769531 C 2017.578125 2199.191406 2019.800781 2194.238281 2019.800781 2188.761719 C 2019.800781 2183.289062 2017.578125 2178.339844 2014 2174.761719 Z M 2143.488281 1753.53125 C 2139.910156 1749.949219 2134.949219 1747.730469 2129.480469 1747.730469 C 2124.011719 1747.730469 2119.058594 1749.949219 2115.46875 1753.53125 L 2115.441406 1753.488281 C 2111.878906 1757.070312 2109.679688 1762.039062 2109.679688 1767.53125 C 2109.679688 1773.03125 2111.878906 1777.988281 2115.441406 1781.570312 C 2119.019531 1785.128906 2123.980469 1787.339844 2129.480469 1787.339844 C 2134.648438 1787.339844 2139.351562 1785.390625 2142.859375 1782.199219 L 2143.488281 1781.539062 C 2147.070312 1777.960938 2149.289062 1773.011719 2149.289062 1767.53125 C 2149.289062 1762.058594 2147.070312 1757.109375 2143.488281 1753.53125 Z M 1884.519531 1467.089844 C 1880.941406 1463.511719 1875.980469 1461.300781 1870.511719 1461.300781 C 1865.039062 1461.300781 1860.089844 1463.511719 1856.5 1467.089844 L 1856.46875 1467.058594 C 1852.910156 1470.640625 1850.710938 1475.601562 1850.710938 1481.101562 C 1850.710938 1486.601562 1852.910156 1491.558594 1856.46875 1495.140625 C 1860.050781 1498.699219 1865.011719 1500.910156 1870.511719 1500.910156 C 1875.679688 1500.910156 1880.378906 1498.949219 1883.890625 1495.769531 L 1884.519531 1495.109375 C 1888.101562 1491.53125 1890.320312 1486.570312 1890.320312 1481.101562 C 1890.320312 1475.628906 1888.101562 1470.671875 1884.519531 1467.089844 Z M 1884.519531 945.878906 C 1880.941406 942.300781 1875.980469 940.078125 1870.511719 940.078125 C 1865.039062 940.078125 1860.089844 942.300781 1856.5 945.878906 L 1856.46875 945.851562 C 1852.910156 949.429688 1850.710938 954.390625 1850.710938 959.890625 C 1850.710938 965.390625 1852.910156 970.351562 1856.46875 973.929688 C 1860.050781 977.488281 1865.011719 979.691406 1870.511719 979.691406 C 1875.679688 979.691406 1880.378906 977.738281 1883.890625 974.550781 L 1884.519531 973.890625 C 1888.101562 970.308594 1890.320312 965.359375 1890.320312 959.890625 C 1890.320312 954.421875 1888.101562 949.460938 1884.519531 945.878906 Z M 1631.390625 1137.320312 L 1528.199219 1137.320312 C 1500.800781 1137.320312 1478.378906 1159.738281 1478.378906 1187.140625 L 1478.378906 1290.328125 C 1478.378906 1317.730469 1500.800781 1340.148438 1528.199219 1340.148438 L 1631.390625 1340.148438 C 1658.789062 1340.148438 1681.210938 1317.730469 1681.210938 1290.328125 L 1681.210938 1187.140625 C 1681.210938 1159.738281 1658.789062 1137.320312 1631.390625 1137.320312 Z M 1493.78125 960.300781 L 1422.480469 960.300781 C 1403.539062 960.300781 1388.058594 975.78125 1388.058594 994.71875 L 1388.058594 1066.019531 C 1388.058594 1084.949219 1403.539062 1100.441406 1422.480469 1100.441406 L 1493.78125 1100.441406 C 1512.710938 1100.441406 1528.199219 1084.949219 1528.199219 1066.019531 L 1528.199219 994.71875 C 1528.199219 975.78125 1512.710938 960.300781 1493.78125 960.300781 Z M 1361.929688 1137.320312 L 1307.789062 1137.320312 C 1293.421875 1137.320312 1281.660156 1149.070312 1281.660156 1163.449219 L 1281.660156 1217.578125 C 1281.660156 1231.949219 1293.421875 1243.710938 1307.789062 1243.710938 L 1361.929688 1243.710938 C 1376.300781 1243.710938 1388.058594 1231.949219 1388.058594 1217.578125 L 1388.058594 1163.449219 C 1388.058594 1149.070312 1376.300781 1137.320312 1361.929688 1137.320312 Z M 2368.609375 2180.558594 L 2471.800781 2180.558594 C 2499.199219 2180.558594 2521.621094 2158.140625 2521.621094 2130.738281 L 2521.621094 2027.550781 C 2521.621094 2000.148438 2499.199219 1977.730469 2471.800781 1977.730469 L 2368.609375 1977.730469 C 2341.210938 1977.730469 2318.789062 2000.148438 2318.789062 2027.550781 L 2318.789062 2130.738281 C 2318.789062 2158.140625 2341.210938 2180.558594 2368.609375 2180.558594 Z M 2506.21875 2357.578125 L 2577.519531 2357.578125 C 2596.460938 2357.578125 2611.941406 2342.089844 2611.941406 2323.160156 L 2611.941406 2251.859375 C 2611.941406 2232.929688 2596.460938 2217.441406 2577.519531 2217.441406 L 2506.21875 2217.441406 C 2487.289062 2217.441406 2471.800781 2232.929688 2471.800781 2251.859375 L 2471.800781 2323.160156 C 2471.800781 2342.089844 2487.289062 2357.578125 2506.21875 2357.578125 Z M 2638.070312 2180.558594 L 2692.199219 2180.558594 C 2706.578125 2180.558594 2718.328125 2168.808594 2718.328125 2154.429688 L 2718.328125 2100.300781 C 2718.328125 2085.929688 2706.578125 2074.171875 2692.199219 2074.171875 L 2638.070312 2074.171875 C 2623.699219 2074.171875 2611.941406 2085.921875 2611.941406 2100.300781 L 2611.941406 2154.429688 C 2611.941406 2168.800781 2623.699219 2180.558594 2638.070312 2180.558594 Z M 1891.820312 832.859375 L 1979.019531 832.859375 L 1979.019531 1015.460938 L 1858.828125 1106.371094 C 1853.21875 1110.140625 1849.53125 1116.53125 1849.53125 1123.789062 L 1849.53125 1430.488281 C 1842.839844 1433.269531 1836.820312 1437.328125 1831.78125 1442.371094 L 1831.78125 1442.441406 C 1821.878906 1452.351562 1815.738281 1466.019531 1815.738281 1481.101562 C 1815.738281 1496.171875 1821.871094 1509.851562 1831.78125 1519.761719 L 1831.851562 1519.828125 C 1841.761719 1529.738281 1855.441406 1535.871094 1870.511719 1535.871094 C 1885.050781 1535.871094 1898.289062 1530.160156 1908.101562 1520.871094 L 1909.238281 1519.828125 C 1919.148438 1509.921875 1925.28125 1496.21875 1925.28125 1481.101562 C 1925.28125 1465.980469 1919.148438 1452.28125 1909.238281 1442.371094 C 1904.199219 1437.328125 1898.179688 1433.269531 1891.488281 1430.5 L 1891.488281 1134.191406 L 1979.019531 1067.988281 L 1979.019531 1286.058594 C 1979.019531 1293.320312 1982.710938 1299.710938 1988.320312 1303.480469 L 2108.5 1394.378906 L 2108.5 1470.710938 L 1988.308594 1561.609375 C 1982.710938 1565.378906 1979.019531 1571.78125 1979.019531 1579.039062 L 1979.019531 2138.160156 C 1972.328125 2140.941406 1966.308594 2145 1961.269531 2150.039062 L 1961.269531 2150.101562 C 1951.359375 2160.011719 1945.21875 2173.691406 1945.21875 2188.769531 C 1945.21875 2203.839844 1951.359375 2217.511719 1961.269531 2227.429688 L 1961.328125 2227.488281 C 1971.25 2237.398438 1984.921875 2243.539062 2000 2243.539062 C 2014.539062 2243.539062 2027.78125 2237.828125 2037.589844 2228.53125 L 2038.71875 2227.488281 C 2048.628906 2217.589844 2054.769531 2203.890625 2054.769531 2188.769531 C 2054.769531 2173.648438 2048.628906 2159.949219 2038.71875 2150.039062 C 2033.691406 2145 2027.660156 2140.941406 2020.96875 2138.160156 L 2020.96875 1589.429688 L 2108.5 1523.230469 L 2108.5 1716.929688 C 2101.808594 1719.710938 2095.789062 1723.769531 2090.75 1728.808594 L 2090.75 1728.871094 C 2080.851562 1738.78125 2074.710938 1752.460938 2074.710938 1767.539062 C 2074.710938 1782.609375 2080.839844 1796.28125 2090.75 1806.199219 L 2090.820312 1806.261719 C 2100.730469 1816.171875 2114.410156 1822.308594 2129.480469 1822.308594 C 2144.019531 1822.308594 2157.261719 1816.601562 2167.070312 1807.300781 L 2168.210938 1806.261719 C 2178.121094 1796.359375 2184.25 1782.660156 2184.25 1767.539062 C 2184.25 1752.421875 2178.121094 1738.71875 2168.210938 1728.808594 C 2163.171875 1723.769531 2157.148438 1719.710938 2150.460938 1716.929688 L 2150.460938 1383.988281 C 2150.460938 1376.75 2146.789062 1370.359375 2141.191406 1366.589844 L 2020.980469 1275.660156 L 2020.980469 832.859375 L 2108.179688 832.859375 L 2108.5 832.871094 L 2108.5 1123.800781 C 2108.5 1135.378906 2117.898438 1144.78125 2129.480469 1144.78125 C 2141.070312 1144.78125 2150.460938 1135.378906 2150.460938 1123.800781 L 2150.460938 838.941406 C 2212.980469 857.339844 2258.96875 915.378906 2258.96875 983.648438 L 2258.96875 1399.96875 L 2675.289062 1399.96875 C 2758.21875 1399.96875 2826.078125 1467.828125 2826.078125 1550.761719 L 2826.078125 1767.121094 C 2826.078125 1850.058594 2758.21875 1917.910156 2675.289062 1917.910156 L 2433.53125 1917.910156 C 2414.601562 1917.910156 2399.109375 1902.429688 2399.109375 1883.488281 L 2399.109375 1846.609375 C 2399.109375 1827.679688 2383.621094 1812.191406 2364.691406 1812.191406 L 2293.390625 1812.191406 C 2274.449219 1812.191406 2258.96875 1827.679688 2258.96875 1846.609375 L 2258.96875 2334.230469 C 2258.96875 2402.5 2212.980469 2460.550781 2150.460938 2478.941406 L 2150.460938 1975.398438 C 2150.460938 1963.808594 2141.058594 1954.421875 2129.480469 1954.421875 C 2117.898438 1954.421875 2108.5 1963.808594 2108.5 1975.398438 L 2108.5 2485.019531 L 1891.488281 2485.019531 L 1891.488281 1767.539062 C 1891.488281 1755.949219 1882.089844 1746.558594 1870.511719 1746.558594 C 1858.929688 1746.558594 1849.53125 1755.949219 1849.53125 1767.539062 L 1849.53125 2478.941406 C 1787.011719 2460.539062 1741.03125 2402.5 1741.03125 2334.230469 L 1741.03125 1917.910156 L 1324.710938 1917.910156 C 1241.769531 1917.910156 1173.921875 1850.058594 1173.921875 1767.121094 L 1173.921875 1550.761719 C 1173.921875 1467.828125 1241.769531 1399.96875 1324.710938 1399.96875 L 1566.460938 1399.96875 C 1585.398438 1399.96875 1600.890625 1415.460938 1600.890625 1434.390625 L 1600.890625 1471.269531 C 1600.890625 1490.210938 1616.371094 1505.691406 1635.308594 1505.691406 L 1706.609375 1505.691406 C 1725.539062 1505.691406 1741.03125 1490.210938 1741.03125 1471.269531 L 1741.03125 983.660156 C 1741.03125 915.378906 1787.011719 857.339844 1849.53125 838.949219 L 1849.53125 909.28125 C 1842.839844 912.058594 1836.820312 916.121094 1831.78125 921.160156 L 1831.78125 921.230469 C 1821.878906 931.140625 1815.738281 944.808594 1815.738281 959.890625 C 1815.738281 974.960938 1821.871094 988.640625 1831.78125 998.550781 L 1831.851562 998.621094 C 1841.761719 1008.53125 1855.441406 1014.660156 1870.511719 1014.660156 C 1885.050781 1014.660156 1898.289062 1008.949219 1908.101562 999.660156 L 1909.238281 998.621094 C 1919.148438 988.710938 1925.28125 975.011719 1925.28125 959.890625 C 1925.28125 944.769531 1919.148438 931.070312 1909.238281 921.160156 C 1904.199219 916.121094 1898.179688 912.058594 1891.488281 909.289062 L 1891.488281 832.871094 L 1891.820312 832.859375 "/>
</clipPath>
<linearGradient id="linear-pattern-0" gradientUnits="userSpaceOnUse" x1="0.0282434" y1="0" x2="0.953809" y2="0" gradientTransform="matrix(1101.43, 2137.31, 2137.31, -1101.43, 1459.16, 609.47)">
<stop offset="0" stop-color="rgb(17.802429%, 90.296936%, 74.893188%)" stop-opacity="1"/>
<stop offset="0.0078125" stop-color="rgb(17.771912%, 90.209961%, 74.992371%)" stop-opacity="1"/>
<stop offset="0.015625" stop-color="rgb(17.712402%, 90.034485%, 75.192261%)" stop-opacity="1"/>
<stop offset="0.0234375" stop-color="rgb(17.651367%, 89.860535%, 75.390625%)" stop-opacity="1"/>
<stop offset="0.03125" stop-color="rgb(17.591858%, 89.685059%, 75.588989%)" stop-opacity="1"/>
<stop offset="0.0390625" stop-color="rgb(17.530823%, 89.509583%, 75.788879%)" stop-opacity="1"/>
<stop offset="0.046875" stop-color="rgb(17.471313%, 89.335632%, 75.987244%)" stop-opacity="1"/>
<stop offset="0.0546875" stop-color="rgb(17.410278%, 89.160156%, 76.185608%)" stop-opacity="1"/>
<stop offset="0.0625" stop-color="rgb(17.350769%, 88.986206%, 76.383972%)" stop-opacity="1"/>
<stop offset="0.0703125" stop-color="rgb(17.289734%, 88.81073%, 76.583862%)" stop-opacity="1"/>
<stop offset="0.078125" stop-color="rgb(17.230225%, 88.63678%, 76.782227%)" stop-opacity="1"/>
<stop offset="0.0859375" stop-color="rgb(17.170715%, 88.461304%, 76.980591%)" stop-opacity="1"/>
<stop offset="0.09375" stop-color="rgb(17.10968%, 88.287354%, 77.180481%)" stop-opacity="1"/>
<stop offset="0.101562" stop-color="rgb(17.050171%, 88.111877%, 77.378845%)" stop-opacity="1"/>
<stop offset="0.109375" stop-color="rgb(16.989136%, 87.937927%, 77.577209%)" stop-opacity="1"/>
<stop offset="0.117188" stop-color="rgb(16.929626%, 87.762451%, 77.7771%)" stop-opacity="1"/>
<stop offset="0.125" stop-color="rgb(16.868591%, 87.588501%, 77.975464%)" stop-opacity="1"/>
<stop offset="0.132813" stop-color="rgb(16.809082%, 87.413025%, 78.173828%)" stop-opacity="1"/>
<stop offset="0.140625" stop-color="rgb(16.748047%, 87.239075%, 78.373718%)" stop-opacity="1"/>
<stop offset="0.148438" stop-color="rgb(16.688538%, 87.063599%, 78.572083%)" stop-opacity="1"/>
<stop offset="0.15625" stop-color="rgb(16.627502%, 86.889648%, 78.770447%)" stop-opacity="1"/>
<stop offset="0.164063" stop-color="rgb(16.567993%, 86.714172%, 78.970337%)" stop-opacity="1"/>
<stop offset="0.171875" stop-color="rgb(16.506958%, 86.540222%, 79.168701%)" stop-opacity="1"/>
<stop offset="0.179688" stop-color="rgb(16.447449%, 86.364746%, 79.367065%)" stop-opacity="1"/>
<stop offset="0.1875" stop-color="rgb(16.386414%, 86.190796%, 79.566956%)" stop-opacity="1"/>
<stop offset="0.195313" stop-color="rgb(16.326904%, 86.01532%, 79.76532%)" stop-opacity="1"/>
<stop offset="0.203125" stop-color="rgb(16.265869%, 85.839844%, 79.963684%)" stop-opacity="1"/>
<stop offset="0.210938" stop-color="rgb(16.20636%, 85.665894%, 80.163574%)" stop-opacity="1"/>
<stop offset="0.21875" stop-color="rgb(16.145325%, 85.490417%, 80.361938%)" stop-opacity="1"/>
<stop offset="0.226563" stop-color="rgb(16.085815%, 85.316467%, 80.560303%)" stop-opacity="1"/>
<stop offset="0.234375" stop-color="rgb(16.02478%, 85.140991%, 80.760193%)" stop-opacity="1"/>
<stop offset="0.242188" stop-color="rgb(15.965271%, 84.967041%, 80.958557%)" stop-opacity="1"/>
<stop offset="0.25" stop-color="rgb(15.904236%, 84.791565%, 81.156921%)" stop-opacity="1"/>
<stop offset="0.257813" stop-color="rgb(15.844727%, 84.617615%, 81.355286%)" stop-opacity="1"/>
<stop offset="0.265625" stop-color="rgb(15.783691%, 84.442139%, 81.555176%)" stop-opacity="1"/>
<stop offset="0.273438" stop-color="rgb(15.724182%, 84.268188%, 81.75354%)" stop-opacity="1"/>
<stop offset="0.28125" stop-color="rgb(15.663147%, 84.092712%, 81.951904%)" stop-opacity="1"/>
<stop offset="0.289063" stop-color="rgb(15.603638%, 83.918762%, 82.151794%)" stop-opacity="1"/>
<stop offset="0.296875" stop-color="rgb(15.542603%, 83.743286%, 82.350159%)" stop-opacity="1"/>
<stop offset="0.304688" stop-color="rgb(15.483093%, 83.569336%, 82.548523%)" stop-opacity="1"/>
<stop offset="0.3125" stop-color="rgb(15.422058%, 83.39386%, 82.748413%)" stop-opacity="1"/>
<stop offset="0.320312" stop-color="rgb(15.362549%, 83.21991%, 82.946777%)" stop-opacity="1"/>
<stop offset="0.328125" stop-color="rgb(15.301514%, 83.044434%, 83.145142%)" stop-opacity="1"/>
<stop offset="0.335938" stop-color="rgb(15.242004%, 82.870483%, 83.345032%)" stop-opacity="1"/>
<stop offset="0.34375" stop-color="rgb(15.180969%, 82.695007%, 83.543396%)" stop-opacity="1"/>
<stop offset="0.351563" stop-color="rgb(15.12146%, 82.521057%, 83.74176%)" stop-opacity="1"/>
<stop offset="0.359375" stop-color="rgb(15.060425%, 82.345581%, 83.94165%)" stop-opacity="1"/>
<stop offset="0.367188" stop-color="rgb(15.000916%, 82.170105%, 84.140015%)" stop-opacity="1"/>
<stop offset="0.375" stop-color="rgb(14.93988%, 81.996155%, 84.338379%)" stop-opacity="1"/>
<stop offset="0.382812" stop-color="rgb(14.880371%, 81.820679%, 84.538269%)" stop-opacity="1"/>
<stop offset="0.390625" stop-color="rgb(14.819336%, 81.646729%, 84.736633%)" stop-opacity="1"/>
<stop offset="0.398438" stop-color="rgb(14.759827%, 81.471252%, 84.934998%)" stop-opacity="1"/>
<stop offset="0.40625" stop-color="rgb(14.698792%, 81.297302%, 85.134888%)" stop-opacity="1"/>
<stop offset="0.414062" stop-color="rgb(14.639282%, 81.121826%, 85.333252%)" stop-opacity="1"/>
<stop offset="0.421875" stop-color="rgb(14.578247%, 80.947876%, 85.531616%)" stop-opacity="1"/>
<stop offset="0.429688" stop-color="rgb(14.518738%, 80.7724%, 85.72998%)" stop-opacity="1"/>
<stop offset="0.4375" stop-color="rgb(14.457703%, 80.59845%, 85.929871%)" stop-opacity="1"/>
<stop offset="0.445313" stop-color="rgb(14.398193%, 80.422974%, 86.128235%)" stop-opacity="1"/>
<stop offset="0.453125" stop-color="rgb(14.337158%, 80.249023%, 86.326599%)" stop-opacity="1"/>
<stop offset="0.460938" stop-color="rgb(14.277649%, 80.073547%, 86.526489%)" stop-opacity="1"/>
<stop offset="0.46875" stop-color="rgb(14.216614%, 79.899597%, 86.724854%)" stop-opacity="1"/>
<stop offset="0.476562" stop-color="rgb(14.157104%, 79.724121%, 86.923218%)" stop-opacity="1"/>
<stop offset="0.484375" stop-color="rgb(14.102173%, 79.484558%, 86.978149%)" stop-opacity="1"/>
<stop offset="0.492188" stop-color="rgb(14.053345%, 79.165649%, 86.859131%)" stop-opacity="1"/>
<stop offset="0.5" stop-color="rgb(14.004517%, 78.834534%, 86.709595%)" stop-opacity="1"/>
<stop offset="0.507812" stop-color="rgb(13.955688%, 78.501892%, 86.558533%)" stop-opacity="1"/>
<stop offset="0.515625" stop-color="rgb(13.908386%, 78.16925%, 86.408997%)" stop-opacity="1"/>
<stop offset="0.523438" stop-color="rgb(13.859558%, 77.838135%, 86.25946%)" stop-opacity="1"/>
<stop offset="0.53125" stop-color="rgb(13.812256%, 77.505493%, 86.108398%)" stop-opacity="1"/>
<stop offset="0.539062" stop-color="rgb(13.763428%, 77.174377%, 85.958862%)" stop-opacity="1"/>
<stop offset="0.546875" stop-color="rgb(13.7146%, 76.841736%, 85.809326%)" stop-opacity="1"/>
<stop offset="0.554688" stop-color="rgb(13.667297%, 76.509094%, 85.65979%)" stop-opacity="1"/>
<stop offset="0.5625" stop-color="rgb(13.618469%, 76.177979%, 85.508728%)" stop-opacity="1"/>
<stop offset="0.570312" stop-color="rgb(13.571167%, 75.845337%, 85.359192%)" stop-opacity="1"/>
<stop offset="0.578125" stop-color="rgb(13.522339%, 75.512695%, 85.209656%)" stop-opacity="1"/>
<stop offset="0.585937" stop-color="rgb(13.473511%, 75.18158%, 85.058594%)" stop-opacity="1"/>
<stop offset="0.59375" stop-color="rgb(13.426208%, 74.848938%, 84.909058%)" stop-opacity="1"/>
<stop offset="0.601562" stop-color="rgb(13.37738%, 74.516296%, 84.759521%)" stop-opacity="1"/>
<stop offset="0.609375" stop-color="rgb(13.330078%, 74.185181%, 84.609985%)" stop-opacity="1"/>
<stop offset="0.617188" stop-color="rgb(13.28125%, 73.852539%, 84.458923%)" stop-opacity="1"/>
<stop offset="0.625" stop-color="rgb(13.232422%, 73.521423%, 84.309387%)" stop-opacity="1"/>
<stop offset="0.632812" stop-color="rgb(13.18512%, 73.188782%, 84.159851%)" stop-opacity="1"/>
<stop offset="0.640625" stop-color="rgb(13.136292%, 72.85614%, 84.008789%)" stop-opacity="1"/>
<stop offset="0.648438" stop-color="rgb(13.088989%, 72.525024%, 83.859253%)" stop-opacity="1"/>
<stop offset="0.65625" stop-color="rgb(13.040161%, 72.192383%, 83.709717%)" stop-opacity="1"/>
<stop offset="0.664062" stop-color="rgb(12.991333%, 71.859741%, 83.558655%)" stop-opacity="1"/>
<stop offset="0.671875" stop-color="rgb(12.944031%, 71.528625%, 83.409119%)" stop-opacity="1"/>
<stop offset="0.679687" stop-color="rgb(12.895203%, 71.195984%, 83.259583%)" stop-opacity="1"/>
<stop offset="0.6875" stop-color="rgb(12.8479%, 70.863342%, 83.110046%)" stop-opacity="1"/>
<stop offset="0.695312" stop-color="rgb(12.799072%, 70.532227%, 82.958984%)" stop-opacity="1"/>
<stop offset="0.703125" stop-color="rgb(12.75177%, 70.199585%, 82.809448%)" stop-opacity="1"/>
<stop offset="0.710938" stop-color="rgb(12.702942%, 69.868469%, 82.659912%)" stop-opacity="1"/>
<stop offset="0.71875" stop-color="rgb(12.654114%, 69.535828%, 82.50885%)" stop-opacity="1"/>
<stop offset="0.726562" stop-color="rgb(12.606812%, 69.203186%, 82.359314%)" stop-opacity="1"/>
<stop offset="0.734375" stop-color="rgb(12.557983%, 68.87207%, 82.209778%)" stop-opacity="1"/>
<stop offset="0.742187" stop-color="rgb(12.510681%, 68.539429%, 82.060242%)" stop-opacity="1"/>
<stop offset="0.75" stop-color="rgb(12.461853%, 68.206787%, 81.90918%)" stop-opacity="1"/>
<stop offset="0.757812" stop-color="rgb(12.413025%, 67.875671%, 81.759644%)" stop-opacity="1"/>
<stop offset="0.765625" stop-color="rgb(12.365723%, 67.54303%, 81.610107%)" stop-opacity="1"/>
<stop offset="0.773438" stop-color="rgb(12.316895%, 67.210388%, 81.459045%)" stop-opacity="1"/>
<stop offset="0.78125" stop-color="rgb(12.269592%, 66.879272%, 81.309509%)" stop-opacity="1"/>
<stop offset="0.789062" stop-color="rgb(12.220764%, 66.546631%, 81.159973%)" stop-opacity="1"/>
<stop offset="0.796875" stop-color="rgb(12.171936%, 66.215515%, 81.010437%)" stop-opacity="1"/>
<stop offset="0.804688" stop-color="rgb(12.124634%, 65.882874%, 80.859375%)" stop-opacity="1"/>
<stop offset="0.8125" stop-color="rgb(12.075806%, 65.550232%, 80.709839%)" stop-opacity="1"/>
<stop offset="0.820313" stop-color="rgb(12.028503%, 65.219116%, 80.560303%)" stop-opacity="1"/>
<stop offset="0.828125" stop-color="rgb(11.979675%, 64.886475%, 80.409241%)" stop-opacity="1"/>
<stop offset="0.835937" stop-color="rgb(11.930847%, 64.553833%, 80.259705%)" stop-opacity="1"/>
<stop offset="0.84375" stop-color="rgb(11.883545%, 64.222717%, 80.110168%)" stop-opacity="1"/>
<stop offset="0.851562" stop-color="rgb(11.834717%, 63.890076%, 79.960632%)" stop-opacity="1"/>
<stop offset="0.859375" stop-color="rgb(11.787415%, 63.557434%, 79.80957%)" stop-opacity="1"/>
<stop offset="0.867188" stop-color="rgb(11.738586%, 63.226318%, 79.660034%)" stop-opacity="1"/>
<stop offset="0.875" stop-color="rgb(11.689758%, 62.893677%, 79.510498%)" stop-opacity="1"/>
<stop offset="0.882812" stop-color="rgb(11.642456%, 62.562561%, 79.359436%)" stop-opacity="1"/>
<stop offset="0.890625" stop-color="rgb(11.593628%, 62.229919%, 79.2099%)" stop-opacity="1"/>
<stop offset="0.898438" stop-color="rgb(11.546326%, 61.897278%, 79.060364%)" stop-opacity="1"/>
<stop offset="0.90625" stop-color="rgb(11.497498%, 61.566162%, 78.910828%)" stop-opacity="1"/>
<stop offset="0.914063" stop-color="rgb(11.450195%, 61.233521%, 78.759766%)" stop-opacity="1"/>
<stop offset="0.921875" stop-color="rgb(11.401367%, 60.900879%, 78.610229%)" stop-opacity="1"/>
<stop offset="0.929687" stop-color="rgb(11.352539%, 60.569763%, 78.460693%)" stop-opacity="1"/>
<stop offset="0.9375" stop-color="rgb(11.305237%, 60.237122%, 78.309631%)" stop-opacity="1"/>
<stop offset="0.945312" stop-color="rgb(11.256409%, 59.90448%, 78.160095%)" stop-opacity="1"/>
<stop offset="0.953125" stop-color="rgb(11.209106%, 59.573364%, 78.010559%)" stop-opacity="1"/>
<stop offset="0.960938" stop-color="rgb(11.160278%, 59.240723%, 77.861023%)" stop-opacity="1"/>
<stop offset="0.96875" stop-color="rgb(11.11145%, 58.908081%, 77.709961%)" stop-opacity="1"/>
<stop offset="0.976562" stop-color="rgb(11.064148%, 58.576965%, 77.560425%)" stop-opacity="1"/>
<stop offset="0.984375" stop-color="rgb(11.01532%, 58.244324%, 77.410889%)" stop-opacity="1"/>
<stop offset="0.992188" stop-color="rgb(10.968018%, 57.913208%, 77.259827%)" stop-opacity="1"/>
<stop offset="1" stop-color="rgb(10.919189%, 57.580566%, 77.110291%)" stop-opacity="1"/>
</linearGradient>
</defs>

<g clip-path="url(#clip-0)">
<g clip-path="url(#clip-1)">
<path fill-rule="nonzero" fill="url(#linear-pattern-0)" d="M 501.167969 1179.554688 L 2479.386719 160.109375 L 3498.832031 2138.328125 L 1520.613281 3157.773438 Z M 501.167969 1179.554688 "/>
</g>
</g>

</svg>
